<svg id="visual" viewBox="0 0 960 540" width="960" height="540" xmlns="http://www.w3.org/2000/svg" xmlns:xlink="http://www.w3.org/1999/xlink" version="1.1"><rect x="0" y="0" width="960" height="540" fill="#FFFFFF"></rect><defs><linearGradient id="grad1_0" x1="43.8%" y1="0%" x2="100%" y2="100%"><stop offset="14.444444444444446%" stop-color="#f59e0b" stop-opacity="1"></stop><stop offset="85.55555555555554%" stop-color="#f59e0b" stop-opacity="1"></stop></linearGradient></defs><defs><linearGradient id="grad1_1" x1="43.8%" y1="0%" x2="100%" y2="100%"><stop offset="14.444444444444446%" stop-color="#f59e0b" stop-opacity="1"></stop><stop offset="85.55555555555554%" stop-color="#fcae45" stop-opacity="1"></stop></linearGradient></defs><defs><linearGradient id="grad1_2" x1="43.8%" y1="0%" x2="100%" y2="100%"><stop offset="14.444444444444446%" stop-color="#ffbd6c" stop-opacity="1"></stop><stop offset="85.55555555555554%" stop-color="#fcae45" stop-opacity="1"></stop></linearGradient></defs><defs><linearGradient id="grad1_3" x1="43.8%" y1="0%" x2="100%" y2="100%"><stop offset="14.444444444444446%" stop-color="#ffbd6c" stop-opacity="1"></stop><stop offset="85.55555555555554%" stop-color="#ffce91" stop-opacity="1"></stop></linearGradient></defs><defs><linearGradient id="grad1_4" x1="43.8%" y1="0%" x2="100%" y2="100%"><stop offset="14.444444444444446%" stop-color="#ffdeb5" stop-opacity="1"></stop><stop offset="85.55555555555554%" stop-color="#ffce91" stop-opacity="1"></stop></linearGradient></defs><defs><linearGradient id="grad1_5" x1="43.8%" y1="0%" x2="100%" y2="100%"><stop offset="14.444444444444446%" stop-color="#ffdeb5" stop-opacity="1"></stop><stop offset="85.55555555555554%" stop-color="#ffeeda" stop-opacity="1"></stop></linearGradient></defs><defs><linearGradient id="grad1_6" x1="43.8%" y1="0%" x2="100%" y2="100%"><stop offset="14.444444444444446%" stop-color="#ffffff" stop-opacity="1"></stop><stop offset="85.55555555555554%" stop-color="#ffeeda" stop-opacity="1"></stop></linearGradient></defs><defs><linearGradient id="grad2_0" x1="0%" y1="0%" x2="56.3%" y2="100%"><stop offset="14.444444444444446%" stop-color="#f59e0b" stop-opacity="1"></stop><stop offset="85.55555555555554%" stop-color="#f59e0b" stop-opacity="1"></stop></linearGradient></defs><defs><linearGradient id="grad2_1" x1="0%" y1="0%" x2="56.3%" y2="100%"><stop offset="14.444444444444446%" stop-color="#fcae45" stop-opacity="1"></stop><stop offset="85.55555555555554%" stop-color="#f59e0b" stop-opacity="1"></stop></linearGradient></defs><defs><linearGradient id="grad2_2" x1="0%" y1="0%" x2="56.3%" y2="100%"><stop offset="14.444444444444446%" stop-color="#fcae45" stop-opacity="1"></stop><stop offset="85.55555555555554%" stop-color="#ffbd6c" stop-opacity="1"></stop></linearGradient></defs><defs><linearGradient id="grad2_3" x1="0%" y1="0%" x2="56.3%" y2="100%"><stop offset="14.444444444444446%" stop-color="#ffce91" stop-opacity="1"></stop><stop offset="85.55555555555554%" stop-color="#ffbd6c" stop-opacity="1"></stop></linearGradient></defs><defs><linearGradient id="grad2_4" x1="0%" y1="0%" x2="56.3%" y2="100%"><stop offset="14.444444444444446%" stop-color="#ffce91" stop-opacity="1"></stop><stop offset="85.55555555555554%" stop-color="#ffdeb5" stop-opacity="1"></stop></linearGradient></defs><defs><linearGradient id="grad2_5" x1="0%" y1="0%" x2="56.3%" y2="100%"><stop offset="14.444444444444446%" stop-color="#ffeeda" stop-opacity="1"></stop><stop offset="85.55555555555554%" stop-color="#ffdeb5" stop-opacity="1"></stop></linearGradient></defs><defs><linearGradient id="grad2_6" x1="0%" y1="0%" x2="56.3%" y2="100%"><stop offset="14.444444444444446%" stop-color="#ffeeda" stop-opacity="1"></stop><stop offset="85.55555555555554%" stop-color="#ffffff" stop-opacity="1"></stop></linearGradient></defs><g transform="translate(960, 0)"><path d="M0 324C-19.8 320.8 -39.7 317.6 -53.1 301.4C-66.6 285.1 -73.6 256 -92.7 254.7C-111.7 253.4 -142.8 280 -161.5 279.7C-180.2 279.5 -186.6 252.4 -198 235.9C-209.4 219.5 -225.8 213.7 -243.6 204.4C-261.4 195.2 -280.6 182.5 -280.6 162C-280.6 141.5 -261.4 113.3 -257.5 93.7C-253.6 74.2 -265.1 63.3 -278.7 49.1C-292.3 35 -308.2 17.5 -324 0L0 0Z" fill="#fff7ec"></path><path d="M0 277.7C-17 275 -34 272.2 -45.5 258.3C-57.1 244.4 -63.1 219.4 -79.4 218.3C-95.8 217.2 -122.4 240 -138.4 239.8C-154.5 239.6 -159.9 216.3 -169.7 202.2C-179.5 188.1 -193.5 183.1 -208.8 175.2C-224.1 167.3 -240.5 156.4 -240.5 138.9C-240.5 121.3 -224 97.1 -220.7 80.3C-217.4 63.6 -227.2 54.3 -238.9 42.1C-250.6 30 -264.1 15 -277.7 0L0 0Z" fill="#ffe6c7"></path><path d="M0 231.4C-14.2 229.1 -28.3 226.8 -38 215.3C-47.6 203.7 -52.6 182.8 -66.2 181.9C-79.8 181 -102 200 -115.4 199.8C-128.7 199.6 -133.3 180.3 -141.4 168.5C-149.6 156.8 -161.3 152.6 -174 146C-186.7 139.4 -200.4 130.3 -200.4 115.7C-200.4 101.1 -186.7 80.9 -183.9 66.9C-181.1 53 -189.3 45.2 -199.1 35.1C-208.8 25 -220.1 12.5 -231.4 0L0 0Z" fill="#ffd6a3"></path><path d="M0 185.1C-11.3 183.3 -22.7 181.5 -30.4 172.2C-38 162.9 -42.1 146.3 -53 145.5C-63.9 144.8 -81.6 160 -92.3 159.8C-103 159.7 -106.6 144.2 -113.1 134.8C-119.6 125.4 -129 122.1 -139.2 116.8C-149.4 111.5 -160.3 104.3 -160.3 92.6C-160.3 80.9 -149.3 64.7 -147.1 53.6C-144.9 42.4 -151.5 36.2 -159.3 28.1C-167.1 20 -176.1 10 -185.1 0L0 0Z" fill="#ffc57e"></path><path d="M0 138.9C-8.5 137.5 -17 136.1 -22.8 129.2C-28.5 122.2 -31.6 109.7 -39.7 109.1C-47.9 108.6 -61.2 120 -69.2 119.9C-77.2 119.8 -80 108.2 -84.8 101.1C-89.7 94.1 -96.8 91.6 -104.4 87.6C-112 83.6 -120.3 78.2 -120.3 69.4C-120.2 60.7 -112 48.5 -110.3 40.2C-108.7 31.8 -113.6 27.1 -119.4 21.1C-125.3 15 -132.1 7.5 -138.9 0L0 0Z" fill="#feb659"></path><path d="M0 92.6C-5.7 91.7 -11.3 90.7 -15.2 86.1C-19 81.5 -21 73.1 -26.5 72.8C-31.9 72.4 -40.8 80 -46.1 79.9C-51.5 79.9 -53.3 72.1 -56.6 67.4C-59.8 62.7 -64.5 61 -69.6 58.4C-74.7 55.8 -80.2 52.1 -80.2 46.3C-80.2 40.4 -74.7 32.4 -73.6 26.8C-72.5 21.2 -75.7 18.1 -79.6 14C-83.5 10 -88 5 -92.6 0L0 0Z" fill="#f9a62e"></path><path d="M0 46.3C-2.8 45.8 -5.7 45.4 -7.6 43.1C-9.5 40.7 -10.5 36.6 -13.2 36.4C-16 36.2 -20.4 40 -23.1 40C-25.7 39.9 -26.7 36.1 -28.3 33.7C-29.9 31.4 -32.3 30.5 -34.8 29.2C-37.3 27.9 -40.1 26.1 -40.1 23.1C-40.1 20.2 -37.3 16.2 -36.8 13.4C-36.2 10.6 -37.9 9 -39.8 7C-41.8 5 -44 2.5 -46.3 0L0 0Z" fill="#f59e0b"></path></g><g transform="translate(0, 540)"><path d="M0 -324C14.7 -294.8 29.3 -265.6 45.3 -257C61.3 -248.5 78.7 -260.6 96.8 -265.9C114.9 -271.3 133.6 -269.8 155 -268.5C176.4 -267.1 200.3 -265.9 208.3 -248.2C216.2 -230.5 208.2 -196.5 209.1 -175.5C210.1 -154.5 220 -146.7 239.9 -138.5C259.7 -130.3 289.5 -121.9 290.4 -105.7C291.2 -89.5 263.1 -65.4 263.9 -46.5C264.7 -27.6 294.4 -13.8 324 0L0 0Z" fill="#fff7ec"></path><path d="M0 -277.7C12.6 -252.7 25.1 -227.6 38.8 -220.3C52.6 -213 67.5 -223.4 83 -227.9C98.5 -232.5 114.5 -231.3 132.9 -230.1C151.2 -229 171.7 -227.9 178.5 -212.7C185.3 -197.6 178.4 -168.4 179.3 -150.4C180.1 -132.4 188.6 -125.7 205.6 -118.7C222.6 -111.7 248.2 -104.5 248.9 -90.6C249.6 -76.7 225.6 -56.1 226.2 -39.9C226.9 -23.7 252.3 -11.8 277.7 0L0 0Z" fill="#ffe6c7"></path><path d="M0 -231.4C10.5 -210.6 20.9 -189.7 32.4 -183.6C43.8 -177.5 56.2 -186.1 69.1 -190C82 -193.8 95.5 -192.7 110.7 -191.8C126 -190.8 143.1 -189.9 148.8 -177.3C154.4 -164.7 148.7 -140.3 149.4 -125.3C150.1 -110.4 157.2 -104.8 171.3 -98.9C185.5 -93.1 206.8 -87.1 207.4 -75.5C208 -63.9 188 -46.7 188.5 -33.2C189.1 -19.7 210.3 -9.9 231.4 0L0 0Z" fill="#ffd6a3"></path><path d="M0 -185.1C8.4 -168.5 16.7 -151.8 25.9 -146.9C35.1 -142 45 -148.9 55.3 -152C65.6 -155 76.4 -154.2 88.6 -153.4C100.8 -152.6 114.5 -151.9 119 -141.8C123.6 -131.7 119 -112.3 119.5 -100.3C120 -88.3 125.7 -83.8 137.1 -79.1C148.4 -74.5 165.4 -69.7 165.9 -60.4C166.4 -51.1 150.4 -37.4 150.8 -26.6C151.3 -15.8 168.2 -7.9 185.1 0L0 0Z" fill="#ffc57e"></path><path d="M0 -138.9C6.3 -126.3 12.6 -113.8 19.4 -110.2C26.3 -106.5 33.7 -111.7 41.5 -114C49.2 -116.3 57.3 -115.6 66.4 -115.1C75.6 -114.5 85.8 -113.9 89.3 -106.4C92.7 -98.8 89.2 -84.2 89.6 -75.2C90 -66.2 94.3 -62.9 102.8 -59.4C111.3 -55.9 124.1 -52.2 124.4 -45.3C124.8 -38.3 112.8 -28 113.1 -19.9C113.4 -11.8 126.2 -5.9 138.9 0L0 0Z" fill="#feb659"></path><path d="M0 -92.6C4.2 -84.2 8.4 -75.9 12.9 -73.4C17.5 -71 22.5 -74.5 27.7 -76C32.8 -77.5 38.2 -77.1 44.3 -76.7C50.4 -76.3 57.2 -76 59.5 -70.9C61.8 -65.9 59.5 -56.1 59.8 -50.1C60 -44.1 62.9 -41.9 68.5 -39.6C74.2 -37.2 82.7 -34.8 83 -30.2C83.2 -25.6 75.2 -18.7 75.4 -13.3C75.6 -7.9 84.1 -3.9 92.6 0L0 0Z" fill="#f9a62e"></path><path d="M0 -46.3C2.1 -42.1 4.2 -37.9 6.5 -36.7C8.8 -35.5 11.2 -37.2 13.8 -38C16.4 -38.8 19.1 -38.5 22.1 -38.4C25.2 -38.2 28.6 -38 29.8 -35.5C30.9 -32.9 29.7 -28.1 29.9 -25.1C30 -22.1 31.4 -21 34.3 -19.8C37.1 -18.6 41.4 -17.4 41.5 -15.1C41.6 -12.8 37.6 -9.3 37.7 -6.6C37.8 -3.9 42.1 -2 46.3 0L0 0Z" fill="#f59e0b"></path></g></svg>